<svg width="65" height="57" viewBox="0 0 65 57" fill="none" xmlns="http://www.w3.org/2000/svg">
<g id="cup">
<path id="Vector" d="M32.4999 55.5045C49.5588 55.5045 63.3877 43.4035 63.3877 28.4763C63.3877 13.549 49.5588 1.44812 32.4999 1.44812C15.441 1.44812 1.61206 13.549 1.61206 28.4763C1.61206 43.4035 15.441 55.5045 32.4999 55.5045Z" fill="#000055"/>
<path id="Vector_2" d="M32.602 56.3158C10.7655 56.3158 0.97998 42.3769 0.97998 28.5639C0.97998 14.7509 10.755 0.812073 32.602 0.812073C54.449 0.812073 64.2135 14.7509 64.2135 28.5639C64.2135 42.3769 54.4385 56.3158 32.602 56.3158ZM32.602 2.26994C14.5623 2.26994 2.43786 12.8421 2.43786 28.5744C2.43786 44.3068 14.5623 54.8789 32.602 54.8789C50.6418 54.8789 62.7661 44.3068 62.7661 28.5744C62.7661 12.8421 50.6418 2.26994 32.602 2.26994Z" fill="#FF267E"/>
<path id="Vector_3" d="M42.8351 14.6646C42.8588 13.4397 42.8193 12.6731 42.8193 12.6731H32.4979L32.3952 12.6652H22.0659C22.0659 12.6652 22.0264 13.4476 22.0501 14.6725H15.2061V15.9765C15.2061 16.2768 15.2535 23.3026 18.9995 27.1514C20.5643 28.7557 22.5164 29.5618 24.8161 29.5698C25.1639 29.5698 25.5195 29.546 25.8831 29.5065C27.1871 31.5771 28.6965 33.0234 30.3957 33.7505V39.4802H25.4168V43.0681H23.7729V45.0834H41.128V43.0681H39.4842V39.4802H34.5053V33.7505C36.2044 33.0313 37.7139 31.5771 39.0179 29.5065C39.3814 29.546 39.7371 29.5698 40.0848 29.5698C42.3846 29.5698 44.3366 28.7636 45.8935 27.1514C49.6396 23.3026 49.687 16.2768 49.687 15.9765V14.6725H42.8509L42.8351 14.6646ZM20.5011 25.1915C18.3594 23.0023 17.7271 19.2484 17.5375 17.2647H22.1686C22.3662 19.7305 22.8246 22.7969 23.8915 25.4997C24.0891 25.9976 24.2945 26.4639 24.5 26.9222C22.9036 26.8511 21.5601 26.2742 20.4932 25.1915H20.5011ZM44.3762 25.1915C43.3172 26.2821 41.9657 26.8511 40.3693 26.9222C40.5748 26.4639 40.7882 25.9976 40.9779 25.4997C42.0448 22.7969 42.5031 19.7305 42.7007 17.2647H47.3319C47.1422 19.2405 46.51 22.9944 44.3683 25.1915H44.3762Z" fill="#FF267E"/>
</g>
</svg>
