<svg width="54" height="45" viewBox="0 0 54 45" fill="none" xmlns="http://www.w3.org/2000/svg">
<ellipse cx="26.9998" cy="22.1883" rx="26.7732" ry="22.1848" fill="#E3E3E3"/>
<path fill-rule="evenodd" clip-rule="evenodd" d="M51.775 22.1883C51.775 33.6643 40.6828 42.9675 26.9998 42.9675C13.3168 42.9675 2.22461 33.6643 2.22461 22.1883C2.22461 10.7123 13.3168 1.40909 26.9998 1.40909C40.6828 1.40909 51.775 10.7123 51.775 22.1883ZM33.1169 23.3771C32.4605 23.2429 31.834 23.0564 31.2372 22.8177C30.6554 22.579 30.1407 22.2732 29.6932 21.9002C29.2605 21.5123 28.91 21.0573 28.6414 20.5352C28.3878 19.9981 28.261 19.379 28.261 18.6778C28.261 17.8573 28.4549 17.1562 28.8428 16.5743C29.2456 15.9776 29.7528 15.4928 30.3645 15.1198C30.9911 14.7319 31.6848 14.4485 32.4456 14.2695C33.2214 14.0755 33.9822 13.9785 34.7281 13.9785C35.5636 13.9785 36.3542 14.0979 37.1002 14.3366C37.861 14.5753 38.5323 14.9184 39.1141 15.366C39.696 15.7986 40.1584 16.3282 40.5015 16.9548C40.8596 17.5813 41.061 18.2825 41.1057 19.0583H38.0176C37.958 18.5809 37.8162 18.1855 37.5925 17.8722C37.3687 17.544 37.1002 17.283 36.7869 17.089C36.4736 16.8802 36.123 16.7384 35.7351 16.6639C35.3472 16.5743 34.9668 16.5296 34.5939 16.5296C34.2209 16.5296 33.8479 16.5669 33.475 16.6415C33.102 16.7161 32.7664 16.8354 32.468 16.9995C32.1696 17.1487 31.9235 17.3576 31.7295 17.6261C31.5505 17.8797 31.461 18.1855 31.461 18.5436C31.461 19.1105 31.6699 19.558 32.0876 19.8862C32.5202 20.2144 33.0647 20.4382 33.7211 20.5576L35.847 20.938C36.5034 21.0573 37.1598 21.2214 37.8162 21.4303C38.4876 21.6391 39.0843 21.93 39.6064 22.303C40.1435 22.6611 40.5761 23.131 40.9043 23.7128C41.2325 24.2797 41.3967 24.9809 41.3967 25.8163C41.3967 26.6517 41.2027 27.3827 40.8148 28.0093C40.4419 28.621 39.9421 29.1356 39.3155 29.5534C38.7039 29.9711 38.0027 30.2844 37.212 30.4932C36.4363 30.6872 35.6382 30.7841 34.8176 30.7841C33.8181 30.7841 32.9081 30.6573 32.0876 30.4037C31.282 30.1352 30.5808 29.7622 29.9841 29.2848C29.3873 28.7925 28.91 28.2032 28.5519 27.517C28.1939 26.8158 27.9776 26.0252 27.903 25.145H30.9911C31.0806 25.7417 31.2447 26.2415 31.4834 26.6443C31.7221 27.0321 32.013 27.3454 32.3561 27.5841C32.7141 27.8228 33.1095 27.9944 33.5421 28.0988C33.9897 28.1883 34.4521 28.2331 34.9295 28.2331C35.2876 28.2331 35.6531 28.1958 36.026 28.1212C36.4139 28.0466 36.7645 27.9272 37.0778 27.7631C37.406 27.5841 37.6671 27.3529 37.861 27.0694C38.0699 26.7711 38.1743 26.4056 38.1743 25.9729C38.1743 25.6298 38.0997 25.3389 37.9505 25.1002C37.8013 24.8466 37.5925 24.6377 37.3239 24.4736C37.0554 24.2946 36.7347 24.1529 36.3617 24.0485C36.0037 23.9291 35.6083 23.8321 35.1757 23.7576L33.1169 23.3771ZM19.9429 26.487L16.0716 14.2689H12.6031L18.2422 30.4926H21.5093L27.1037 14.2689H23.7024L19.9429 26.487Z" fill="#000055"/>
</svg>
